<svg xmlns="http://www.w3.org/2000/svg" width="240" height="208" viewBox="0 0 240 208">
<rect width="240" height="208" fill="none"/>
<defs>
<clipPath id="upClip"><path d="M60 8 L112 98 L8 98 Z"/></clipPath>
<clipPath id="downClip"><path d="M8 8 L112 8 L60 98 Z"/></clipPath>
</defs>
<g transform="translate(0,0)" opacity="0.7">
<path d="M60 8 L112 98 L8 98 Z" fill="#ffffff" stroke="rgba(255,255,255,0.50)" stroke-width="0.8"/>
<g clip-path="url(#upClip)">
<path d="M60 8 L86 53 L34 53 Z" fill="#ffffff" stroke="rgba(255,255,255,0.50)" stroke-width="0.45"/>
<path d="M34 53 L60 98 L8 98 Z" fill="rgba(255,255,255,0.18)" stroke="rgba(255,255,255,0.50)" stroke-width="0.45"/>
<path d="M86 53 L112 98 L60 98 Z" fill="rgba(255,255,255,0.18)" stroke="rgba(255,255,255,0.50)" stroke-width="0.45"/>
<path d="M34 53 L86 53 L60 98 Z" fill="#ffffff" stroke="rgba(255,255,255,0.50)" stroke-width="0.45"/>
<path d="M60 8 L73 30.5 L47 30.5 Z" fill="rgba(255,255,255,0.18)" stroke="rgba(255,255,255,0.50)" stroke-width="0.45"/>
<path d="M47 30.5 L60 53 L34 53 Z" fill="#ffffff" stroke="rgba(255,255,255,0.50)" stroke-width="0.45"/>
<path d="M73 30.5 L86 53 L60 53 Z" fill="#ffffff" stroke="rgba(255,255,255,0.50)" stroke-width="0.45"/>
<path d="M47 30.5 L73 30.5 L60 53 Z" fill="rgba(255,255,255,0.18)" stroke="rgba(255,255,255,0.50)" stroke-width="0.45"/>
<path d="M34 53 L47 75.5 L21 75.5 Z" fill="#ffffff" stroke="rgba(255,255,255,0.50)" stroke-width="0.45"/>
<path d="M21 75.5 L34 98 L8 98 Z" fill="rgba(255,255,255,0.18)" stroke="rgba(255,255,255,0.50)" stroke-width="0.45"/>
<path d="M47 75.5 L60 98 L34 98 Z" fill="rgba(255,255,255,0.18)" stroke="rgba(255,255,255,0.50)" stroke-width="0.45"/>
<path d="M21 75.5 L47 75.5 L34 98 Z" fill="#ffffff" stroke="rgba(255,255,255,0.50)" stroke-width="0.45"/>
<path d="M86 53 L99 75.5 L73 75.5 Z" fill="#ffffff" stroke="rgba(255,255,255,0.50)" stroke-width="0.45"/>
<path d="M73 75.5 L86 98 L60 98 Z" fill="rgba(255,255,255,0.18)" stroke="rgba(255,255,255,0.50)" stroke-width="0.45"/>
<path d="M99 75.5 L112 98 L86 98 Z" fill="rgba(255,255,255,0.18)" stroke="rgba(255,255,255,0.50)" stroke-width="0.45"/>
<path d="M73 75.5 L99 75.5 L86 98 Z" fill="#ffffff" stroke="rgba(255,255,255,0.50)" stroke-width="0.45"/>
</g></g>
<g transform="translate(120,0)" opacity="0.7">
<path d="M8 8 L112 8 L60 98 Z" fill="rgba(255,255,255,0.18)" stroke="rgba(255,255,255,0.50)" stroke-width="0.8"/>
<g clip-path="url(#downClip)">
<path d="M8 8 L60 8 L34 53 Z" fill="#ffffff" stroke="rgba(255,255,255,0.50)" stroke-width="0.45"/>
<path d="M60 8 L112 8 L86 53 Z" fill="#ffffff" stroke="rgba(255,255,255,0.50)" stroke-width="0.45"/>
<path d="M34 53 L86 53 L60 98 Z" fill="rgba(255,255,255,0.18)" stroke="rgba(255,255,255,0.50)" stroke-width="0.45"/>
<path d="M34 53 L86 53 L60 8 Z" fill="rgba(255,255,255,0.18)" stroke="rgba(255,255,255,0.50)" stroke-width="0.45"/>
<path d="M8 8 L34 8 L21 30.5 Z" fill="rgba(255,255,255,0.18)" stroke="rgba(255,255,255,0.50)" stroke-width="0.45"/>
<path d="M34 8 L60 8 L47 30.5 Z" fill="rgba(255,255,255,0.18)" stroke="rgba(255,255,255,0.50)" stroke-width="0.45"/>
<path d="M21 30.5 L47 30.5 L34 53 Z" fill="#ffffff" stroke="rgba(255,255,255,0.50)" stroke-width="0.45"/>
<path d="M21 30.5 L34 8 L47 30.5 Z" fill="#ffffff" stroke="rgba(255,255,255,0.50)" stroke-width="0.45"/>
<path d="M60 8 L86 8 L73 30.5 Z" fill="rgba(255,255,255,0.18)" stroke="rgba(255,255,255,0.50)" stroke-width="0.45"/>
<path d="M86 8 L112 8 L99 30.5 Z" fill="rgba(255,255,255,0.18)" stroke="rgba(255,255,255,0.50)" stroke-width="0.45"/>
<path d="M73 30.5 L99 30.5 L86 53 Z" fill="#ffffff" stroke="rgba(255,255,255,0.50)" stroke-width="0.45"/>
<path d="M73 30.5 L86 8 L99 30.5 Z" fill="#ffffff" stroke="rgba(255,255,255,0.50)" stroke-width="0.45"/>
<path d="M34 53 L60 53 L47 75.5 Z" fill="#ffffff" stroke="rgba(255,255,255,0.50)" stroke-width="0.45"/>
<path d="M60 53 L86 53 L73 75.5 Z" fill="#ffffff" stroke="rgba(255,255,255,0.50)" stroke-width="0.45"/>
<path d="M47 75.5 L73 75.5 L60 98 Z" fill="rgba(255,255,255,0.18)" stroke="rgba(255,255,255,0.50)" stroke-width="0.45"/>
<path d="M47 75.5 L60 53 L73 75.5 Z" fill="rgba(255,255,255,0.18)" stroke="rgba(255,255,255,0.50)" stroke-width="0.45"/>
</g></g>
<g transform="translate(0,104)" opacity="0.7">
<path d="M8 8 L112 8 L60 98 Z" fill="rgba(255,255,255,0.18)" stroke="rgba(255,255,255,0.50)" stroke-width="0.8"/>
<g clip-path="url(#downClip)">
<path d="M8 8 L60 8 L34 53 Z" fill="#ffffff" stroke="rgba(255,255,255,0.50)" stroke-width="0.45"/>
<path d="M60 8 L112 8 L86 53 Z" fill="#ffffff" stroke="rgba(255,255,255,0.50)" stroke-width="0.45"/>
<path d="M34 53 L86 53 L60 98 Z" fill="rgba(255,255,255,0.18)" stroke="rgba(255,255,255,0.50)" stroke-width="0.45"/>
<path d="M34 53 L86 53 L60 8 Z" fill="rgba(255,255,255,0.18)" stroke="rgba(255,255,255,0.50)" stroke-width="0.45"/>
<path d="M8 8 L34 8 L21 30.5 Z" fill="rgba(255,255,255,0.18)" stroke="rgba(255,255,255,0.50)" stroke-width="0.45"/>
<path d="M34 8 L60 8 L47 30.5 Z" fill="rgba(255,255,255,0.18)" stroke="rgba(255,255,255,0.50)" stroke-width="0.45"/>
<path d="M21 30.5 L47 30.5 L34 53 Z" fill="#ffffff" stroke="rgba(255,255,255,0.50)" stroke-width="0.45"/>
<path d="M21 30.5 L34 8 L47 30.5 Z" fill="#ffffff" stroke="rgba(255,255,255,0.50)" stroke-width="0.45"/>
<path d="M60 8 L86 8 L73 30.5 Z" fill="rgba(255,255,255,0.18)" stroke="rgba(255,255,255,0.50)" stroke-width="0.45"/>
<path d="M86 8 L112 8 L99 30.5 Z" fill="rgba(255,255,255,0.18)" stroke="rgba(255,255,255,0.50)" stroke-width="0.45"/>
<path d="M73 30.5 L99 30.5 L86 53 Z" fill="#ffffff" stroke="rgba(255,255,255,0.50)" stroke-width="0.45"/>
<path d="M73 30.5 L86 8 L99 30.5 Z" fill="#ffffff" stroke="rgba(255,255,255,0.50)" stroke-width="0.45"/>
<path d="M34 53 L60 53 L47 75.5 Z" fill="#ffffff" stroke="rgba(255,255,255,0.50)" stroke-width="0.45"/>
<path d="M60 53 L86 53 L73 75.5 Z" fill="#ffffff" stroke="rgba(255,255,255,0.50)" stroke-width="0.45"/>
<path d="M47 75.5 L73 75.5 L60 98 Z" fill="rgba(255,255,255,0.18)" stroke="rgba(255,255,255,0.50)" stroke-width="0.45"/>
<path d="M47 75.5 L60 53 L73 75.5 Z" fill="rgba(255,255,255,0.18)" stroke="rgba(255,255,255,0.50)" stroke-width="0.45"/>
</g></g>
<g transform="translate(120,104)" opacity="0.7">
<path d="M60 8 L112 98 L8 98 Z" fill="#ffffff" stroke="rgba(255,255,255,0.50)" stroke-width="0.8"/>
<g clip-path="url(#upClip)">
<path d="M60 8 L86 53 L34 53 Z" fill="#ffffff" stroke="rgba(255,255,255,0.50)" stroke-width="0.45"/>
<path d="M34 53 L60 98 L8 98 Z" fill="rgba(255,255,255,0.18)" stroke="rgba(255,255,255,0.50)" stroke-width="0.45"/>
<path d="M86 53 L112 98 L60 98 Z" fill="rgba(255,255,255,0.18)" stroke="rgba(255,255,255,0.50)" stroke-width="0.45"/>
<path d="M34 53 L86 53 L60 98 Z" fill="#ffffff" stroke="rgba(255,255,255,0.50)" stroke-width="0.45"/>
<path d="M60 8 L73 30.5 L47 30.5 Z" fill="rgba(255,255,255,0.18)" stroke="rgba(255,255,255,0.50)" stroke-width="0.45"/>
<path d="M47 30.5 L60 53 L34 53 Z" fill="#ffffff" stroke="rgba(255,255,255,0.50)" stroke-width="0.45"/>
<path d="M73 30.5 L86 53 L60 53 Z" fill="#ffffff" stroke="rgba(255,255,255,0.50)" stroke-width="0.45"/>
<path d="M47 30.5 L73 30.5 L60 53 Z" fill="rgba(255,255,255,0.18)" stroke="rgba(255,255,255,0.50)" stroke-width="0.45"/>
<path d="M34 53 L47 75.5 L21 75.5 Z" fill="#ffffff" stroke="rgba(255,255,255,0.50)" stroke-width="0.45"/>
<path d="M21 75.5 L34 98 L8 98 Z" fill="rgba(255,255,255,0.18)" stroke="rgba(255,255,255,0.50)" stroke-width="0.45"/>
<path d="M47 75.5 L60 98 L34 98 Z" fill="rgba(255,255,255,0.18)" stroke="rgba(255,255,255,0.50)" stroke-width="0.45"/>
<path d="M21 75.5 L47 75.5 L34 98 Z" fill="#ffffff" stroke="rgba(255,255,255,0.50)" stroke-width="0.45"/>
<path d="M86 53 L99 75.5 L73 75.5 Z" fill="#ffffff" stroke="rgba(255,255,255,0.50)" stroke-width="0.45"/>
<path d="M73 75.5 L86 98 L60 98 Z" fill="rgba(255,255,255,0.18)" stroke="rgba(255,255,255,0.50)" stroke-width="0.45"/>
<path d="M99 75.5 L112 98 L86 98 Z" fill="rgba(255,255,255,0.18)" stroke="rgba(255,255,255,0.50)" stroke-width="0.45"/>
<path d="M73 75.5 L99 75.5 L86 98 Z" fill="#ffffff" stroke="rgba(255,255,255,0.50)" stroke-width="0.45"/>
</g></g>
</svg>
